<svg width="342" height="55" viewBox="0 0 342 55" fill="none" xmlns="http://www.w3.org/2000/svg">
<line y1="0.5" x2="159" y2="0.5" stroke="#D0D0D0"/>
<path d="M7.068 9.08V10.184H4.356V17H3.072V10.184H0.36V9.08H7.068ZM9.80006 17.12C9.20006 17.12 8.67206 16.996 8.21606 16.748C7.76806 16.5 7.41606 16.144 7.16006 15.68C6.90406 15.208 6.77606 14.648 6.77606 14C6.77606 13.352 6.90006 12.796 7.14806 12.332C7.40406 11.86 7.75206 11.5 8.19206 11.252C8.64006 11.004 9.15206 10.88 9.72806 10.88C10.3121 10.88 10.8081 11 11.2161 11.24C11.6241 11.48 11.9361 11.808 12.1521 12.224C12.3681 12.64 12.4761 13.112 12.4761 13.64C12.4761 13.792 12.4721 13.932 12.4641 14.06C12.4561 14.188 12.4441 14.296 12.4281 14.384H8.03606C8.09206 14.944 8.27206 15.372 8.57606 15.668C8.88806 15.956 9.28806 16.1 9.77606 16.1C10.1761 16.1 10.5001 16.024 10.7481 15.872C10.9961 15.72 11.1921 15.508 11.3361 15.236L12.3561 15.716C12.1481 16.156 11.8161 16.5 11.3601 16.748C10.9121 16.996 10.3921 17.12 9.80006 17.12ZM9.70406 11.9C9.26406 11.9 8.90006 12.028 8.61206 12.284C8.33206 12.54 8.15206 12.912 8.07206 13.4H11.2281C11.1961 12.92 11.0441 12.552 10.7721 12.296C10.5001 12.032 10.1441 11.9 9.70406 11.9ZM14.0976 17V11H15.1896L15.3096 12.08C15.6376 11.28 16.2656 10.88 17.1936 10.88C17.3136 10.88 17.4336 10.892 17.5536 10.916C17.6736 10.932 17.7736 10.96 17.8536 11L17.6736 12.128C17.5856 12.096 17.4856 12.072 17.3736 12.056C17.2696 12.032 17.1256 12.02 16.9416 12.02C16.6856 12.02 16.4376 12.088 16.1976 12.224C15.9656 12.352 15.7696 12.552 15.6096 12.824C15.4576 13.088 15.3816 13.42 15.3816 13.82V17H14.0976ZM19.0663 17V11H20.2063L20.2663 12.008C20.4743 11.624 20.7503 11.34 21.0943 11.156C21.4463 10.972 21.8183 10.88 22.2103 10.88C22.6423 10.88 23.0383 10.98 23.3983 11.18C23.7663 11.372 24.0423 11.664 24.2263 12.056C24.3543 11.792 24.5303 11.572 24.7543 11.396C24.9783 11.22 25.2263 11.092 25.4983 11.012C25.7703 10.924 26.0383 10.88 26.3023 10.88C26.6863 10.88 27.0463 10.96 27.3823 11.12C27.7183 11.28 27.9903 11.524 28.1983 11.852C28.4063 12.18 28.5103 12.6 28.5103 13.112V17H27.2263V13.316C27.2263 12.82 27.1063 12.468 26.8663 12.26C26.6343 12.044 26.3423 11.936 25.9903 11.936C25.5743 11.936 25.2103 12.092 24.8983 12.404C24.5863 12.708 24.4303 13.152 24.4303 13.736V17H23.1463V13.316C23.1463 12.82 23.0263 12.468 22.7863 12.26C22.5543 12.044 22.2623 11.936 21.9103 11.936C21.6703 11.936 21.4303 12 21.1903 12.128C20.9503 12.256 20.7503 12.456 20.5903 12.728C20.4303 13 20.3503 13.36 20.3503 13.808V17H19.0663ZM31.1049 9.992C30.8249 9.992 30.6089 9.924 30.4569 9.788C30.3129 9.644 30.2409 9.444 30.2409 9.188C30.2409 8.932 30.3129 8.736 30.4569 8.6C30.6089 8.464 30.8249 8.396 31.1049 8.396C31.3769 8.396 31.5849 8.464 31.7289 8.6C31.8809 8.736 31.9569 8.932 31.9569 9.188C31.9569 9.444 31.8809 9.644 31.7289 9.788C31.5849 9.924 31.3769 9.992 31.1049 9.992ZM31.7409 11V17H30.4569V11H31.7409ZM33.7499 17V11H34.8899L34.9499 12.032C35.1499 11.632 35.4259 11.34 35.7779 11.156C36.1379 10.972 36.5379 10.88 36.9779 10.88C37.4019 10.88 37.7819 10.964 38.1179 11.132C38.4619 11.292 38.7339 11.54 38.9339 11.876C39.1339 12.204 39.2339 12.616 39.2339 13.112V17H37.9499V13.508C37.9499 12.916 37.8259 12.508 37.5779 12.284C37.3379 12.052 37.0339 11.936 36.6659 11.936C36.4019 11.936 36.1459 11.996 35.8979 12.116C35.6499 12.236 35.4419 12.436 35.2739 12.716C35.1139 12.988 35.0339 13.352 35.0339 13.808V17H33.7499ZM44.6476 13.148C44.6476 12.748 44.5356 12.44 44.3116 12.224C44.0956 12 43.7956 11.888 43.4116 11.888C43.0516 11.888 42.7396 11.972 42.4756 12.14C42.2196 12.308 42.0356 12.58 41.9236 12.956L40.8436 12.5C40.9956 12.012 41.2916 11.62 41.7316 11.324C42.1796 11.028 42.7556 10.88 43.4596 10.88C43.9316 10.88 44.3516 10.96 44.7196 11.12C45.0956 11.272 45.3876 11.508 45.5956 11.828C45.8116 12.14 45.9196 12.536 45.9196 13.016V15.692C45.9196 15.988 46.0676 16.136 46.3636 16.136C46.5076 16.136 46.6476 16.116 46.7836 16.076L46.7116 16.964C46.5276 17.052 46.2956 17.096 46.0156 17.096C45.6956 17.096 45.4196 17.024 45.1876 16.88C44.9556 16.736 44.7996 16.52 44.7196 16.232C44.5276 16.528 44.2516 16.752 43.8916 16.904C43.5316 17.048 43.1716 17.12 42.8116 17.12C42.2436 17.12 41.7716 16.984 41.3956 16.712C41.0196 16.44 40.8316 16.032 40.8316 15.488C40.8316 15.048 40.9756 14.684 41.2636 14.396C41.5596 14.108 41.9756 13.908 42.5116 13.796L44.6476 13.376V13.148ZM42.1276 15.392C42.1276 15.616 42.2116 15.796 42.3796 15.932C42.5556 16.06 42.7876 16.124 43.0756 16.124C43.3476 16.124 43.6036 16.08 43.8436 15.992C44.0836 15.904 44.2756 15.76 44.4196 15.56C44.5716 15.36 44.6476 15.1 44.6476 14.78V14.276L43.1356 14.588C42.7916 14.652 42.5356 14.744 42.3676 14.864C42.2076 14.984 42.1276 15.16 42.1276 15.392ZM49.2713 8.3V15.32C49.2713 15.616 49.3233 15.82 49.4273 15.932C49.5313 16.044 49.7033 16.1 49.9433 16.1C50.0873 16.1 50.2073 16.092 50.3033 16.076C50.4073 16.052 50.5353 16.012 50.6873 15.956L50.5433 16.916C50.2633 17.052 49.9313 17.12 49.5473 17.12C49.0113 17.12 48.6153 16.984 48.3593 16.712C48.1113 16.44 47.9873 16.012 47.9873 15.428V8.3H49.2713Z" fill="#262626"/>
<path d="M0.4 54L5.38 40.8H7.94L12.92 54H10.66L9.42 50.54H3.86L2.6 54H0.4ZM6.04 44.52L4.48 48.8H8.78L7.26 44.56L6.66 42.66H6.6L6.04 44.52Z" fill="#262626"/>
<line x1="183" y1="0.5" x2="342" y2="0.5" stroke="#D0D0D0"/>
<path d="M187.224 9.08C188.064 9.08 188.736 9.3 189.24 9.74C189.752 10.18 190.008 10.788 190.008 11.564C190.008 12.332 189.752 12.94 189.24 13.388C188.736 13.828 188.064 14.048 187.224 14.048H185.46V17H184.176V9.08H187.224ZM187.02 12.944C187.588 12.944 188.004 12.828 188.268 12.596C188.54 12.364 188.676 12.02 188.676 11.564C188.676 11.108 188.54 10.764 188.268 10.532C188.004 10.292 187.588 10.172 187.02 10.172H185.46V12.944H187.02ZM192.767 8.3V15.32C192.767 15.616 192.819 15.82 192.923 15.932C193.027 16.044 193.199 16.1 193.439 16.1C193.583 16.1 193.703 16.092 193.799 16.076C193.903 16.052 194.031 16.012 194.183 15.956L194.039 16.916C193.759 17.052 193.427 17.12 193.043 17.12C192.507 17.12 192.111 16.984 191.855 16.712C191.607 16.44 191.483 16.012 191.483 15.428V8.3H192.767ZM198.749 13.148C198.749 12.748 198.637 12.44 198.413 12.224C198.197 12 197.897 11.888 197.513 11.888C197.153 11.888 196.841 11.972 196.577 12.14C196.321 12.308 196.137 12.58 196.025 12.956L194.945 12.5C195.097 12.012 195.393 11.62 195.833 11.324C196.281 11.028 196.857 10.88 197.561 10.88C198.033 10.88 198.453 10.96 198.821 11.12C199.197 11.272 199.489 11.508 199.697 11.828C199.913 12.14 200.021 12.536 200.021 13.016V15.692C200.021 15.988 200.169 16.136 200.465 16.136C200.609 16.136 200.749 16.116 200.885 16.076L200.813 16.964C200.629 17.052 200.397 17.096 200.117 17.096C199.797 17.096 199.521 17.024 199.289 16.88C199.057 16.736 198.901 16.52 198.821 16.232C198.629 16.528 198.353 16.752 197.993 16.904C197.633 17.048 197.273 17.12 196.913 17.12C196.345 17.12 195.873 16.984 195.497 16.712C195.121 16.44 194.933 16.032 194.933 15.488C194.933 15.048 195.077 14.684 195.365 14.396C195.661 14.108 196.077 13.908 196.613 13.796L198.749 13.376V13.148ZM196.229 15.392C196.229 15.616 196.313 15.796 196.481 15.932C196.657 16.06 196.889 16.124 197.177 16.124C197.449 16.124 197.705 16.08 197.945 15.992C198.185 15.904 198.377 15.76 198.521 15.56C198.673 15.36 198.749 15.1 198.749 14.78V14.276L197.237 14.588C196.893 14.652 196.637 14.744 196.469 14.864C196.309 14.984 196.229 15.16 196.229 15.392ZM205.707 11V12.008H203.643V15.2C203.643 15.488 203.723 15.704 203.883 15.848C204.043 15.984 204.251 16.052 204.507 16.052C204.731 16.052 204.919 16.02 205.071 15.956C205.231 15.884 205.379 15.788 205.515 15.668L205.803 16.604C205.619 16.764 205.391 16.892 205.119 16.988C204.855 17.076 204.559 17.12 204.231 17.12C203.703 17.12 203.259 16.992 202.899 16.736C202.539 16.472 202.359 16.032 202.359 15.416V12.008H201.207V11H202.359V9.596L203.643 9.236V11H205.707ZM210.437 11V12.008H208.529V17H207.245V12.008H206.117V11H207.245V10.136C207.245 9.528 207.429 9.056 207.797 8.72C208.173 8.384 208.685 8.216 209.333 8.216C209.845 8.216 210.225 8.312 210.473 8.504L210.233 9.428C210.145 9.372 210.045 9.332 209.933 9.308C209.821 9.276 209.693 9.26 209.549 9.26C209.213 9.26 208.953 9.336 208.769 9.488C208.585 9.64 208.493 9.888 208.493 10.232V11H210.437ZM214.069 10.88C214.653 10.88 215.169 11.004 215.617 11.252C216.065 11.5 216.413 11.86 216.661 12.332C216.917 12.796 217.045 13.352 217.045 14C217.045 14.648 216.917 15.208 216.661 15.68C216.413 16.144 216.065 16.5 215.617 16.748C215.169 16.996 214.653 17.12 214.069 17.12C213.485 17.12 212.969 16.996 212.521 16.748C212.073 16.5 211.721 16.144 211.465 15.68C211.209 15.208 211.081 14.648 211.081 14C211.081 13.352 211.209 12.796 211.465 12.332C211.721 11.86 212.073 11.5 212.521 11.252C212.969 11.004 213.485 10.88 214.069 10.88ZM214.069 11.888C213.541 11.888 213.125 12.072 212.821 12.44C212.517 12.8 212.365 13.32 212.365 14C212.365 14.68 212.517 15.204 212.821 15.572C213.125 15.932 213.541 16.112 214.069 16.112C214.597 16.112 215.009 15.932 215.305 15.572C215.609 15.204 215.761 14.68 215.761 14C215.761 13.32 215.609 12.8 215.305 12.44C215.009 12.072 214.597 11.888 214.069 11.888ZM218.66 17V11H219.752L219.872 12.08C220.2 11.28 220.828 10.88 221.756 10.88C221.876 10.88 221.996 10.892 222.116 10.916C222.236 10.932 222.336 10.96 222.416 11L222.236 12.128C222.148 12.096 222.048 12.072 221.936 12.056C221.832 12.032 221.688 12.02 221.504 12.02C221.248 12.02 221 12.088 220.76 12.224C220.528 12.352 220.332 12.552 220.172 12.824C220.02 13.088 219.944 13.42 219.944 13.82V17H218.66ZM223.629 17V11H224.769L224.829 12.008C225.037 11.624 225.313 11.34 225.657 11.156C226.009 10.972 226.381 10.88 226.773 10.88C227.205 10.88 227.601 10.98 227.961 11.18C228.329 11.372 228.605 11.664 228.789 12.056C228.917 11.792 229.093 11.572 229.317 11.396C229.541 11.22 229.789 11.092 230.061 11.012C230.333 10.924 230.601 10.88 230.865 10.88C231.249 10.88 231.609 10.96 231.945 11.12C232.281 11.28 232.553 11.524 232.761 11.852C232.969 12.18 233.073 12.6 233.073 13.112V17H231.789V13.316C231.789 12.82 231.669 12.468 231.429 12.26C231.197 12.044 230.905 11.936 230.553 11.936C230.137 11.936 229.773 12.092 229.461 12.404C229.149 12.708 228.993 13.152 228.993 13.736V17H227.709V13.316C227.709 12.82 227.589 12.468 227.349 12.26C227.117 12.044 226.825 11.936 226.473 11.936C226.233 11.936 225.993 12 225.753 12.128C225.513 12.256 225.313 12.456 225.153 12.728C224.993 13 224.913 13.36 224.913 13.808V17H223.629Z" fill="#262626"/>
<path d="M184.4 54V52.42C185.667 51.54 186.727 50.7533 187.58 50.06C188.447 49.3533 189.14 48.7133 189.66 48.14C190.18 47.5533 190.553 46.9933 190.78 46.46C191.02 45.9267 191.14 45.3867 191.14 44.84C191.14 44.1467 190.913 43.58 190.46 43.14C190.02 42.6867 189.413 42.46 188.64 42.46C187.813 42.46 187.153 42.74 186.66 43.3C186.18 43.8467 185.907 44.6 185.84 45.56L183.98 44.7C184.1 43.4467 184.58 42.4533 185.42 41.72C186.26 40.9733 187.373 40.6 188.76 40.6C189.733 40.6 190.56 40.7867 191.24 41.16C191.92 41.5333 192.44 42.0333 192.8 42.66C193.16 43.2867 193.34 43.9867 193.34 44.76C193.34 45.6 193.133 46.4133 192.72 47.2C192.307 47.9733 191.653 48.7667 190.76 49.58C189.867 50.3933 188.693 51.2667 187.24 52.2V52.24C187.4 52.2267 187.62 52.2133 187.9 52.2C188.18 52.1867 188.46 52.18 188.74 52.18C189.02 52.1667 189.247 52.16 189.42 52.16H193.58V54H184.4ZM198.798 54V44.94C198.798 44.6867 198.798 44.4133 198.798 44.12C198.812 43.8267 198.825 43.52 198.838 43.2C198.385 43.64 197.865 44.02 197.278 44.34C196.692 44.6467 196.098 44.8667 195.498 45L195.098 43.14C195.365 43.1 195.685 43.0067 196.058 42.86C196.445 42.7133 196.838 42.5267 197.238 42.3C197.638 42.0733 198.005 41.8333 198.338 41.58C198.672 41.3133 198.932 41.0533 199.118 40.8H200.918V54H198.798Z" fill="#262626"/>
</svg>
