<svg width="341" height="55" viewBox="0 0 341 55" fill="none" xmlns="http://www.w3.org/2000/svg">
<line y1="0.5" x2="159" y2="0.5" stroke="#D0D0D0"/>
<path d="M3.972 9.08C5.212 9.08 6.176 9.424 6.864 10.112C7.56 10.792 7.908 11.768 7.908 13.04C7.908 14.312 7.56 15.292 6.864 15.98C6.176 16.66 5.212 17 3.972 17H1.176V9.08H3.972ZM3.972 15.908C4.812 15.908 5.452 15.66 5.892 15.164C6.34 14.66 6.564 13.952 6.564 13.04C6.564 12.128 6.34 11.424 5.892 10.928C5.452 10.424 4.812 10.172 3.972 10.172H2.46V15.908H3.972ZM13.0773 13.148C13.0773 12.748 12.9653 12.44 12.7413 12.224C12.5253 12 12.2253 11.888 11.8413 11.888C11.4813 11.888 11.1693 11.972 10.9053 12.14C10.6493 12.308 10.4653 12.58 10.3533 12.956L9.27328 12.5C9.42528 12.012 9.72128 11.62 10.1613 11.324C10.6093 11.028 11.1853 10.88 11.8893 10.88C12.3613 10.88 12.7813 10.96 13.1493 11.12C13.5253 11.272 13.8173 11.508 14.0253 11.828C14.2413 12.14 14.3493 12.536 14.3493 13.016V15.692C14.3493 15.988 14.4973 16.136 14.7933 16.136C14.9373 16.136 15.0773 16.116 15.2133 16.076L15.1413 16.964C14.9573 17.052 14.7253 17.096 14.4453 17.096C14.1253 17.096 13.8493 17.024 13.6173 16.88C13.3853 16.736 13.2293 16.52 13.1493 16.232C12.9573 16.528 12.6813 16.752 12.3213 16.904C11.9613 17.048 11.6013 17.12 11.2413 17.12C10.6733 17.12 10.2013 16.984 9.82528 16.712C9.44928 16.44 9.26128 16.032 9.26128 15.488C9.26128 15.048 9.40528 14.684 9.69328 14.396C9.98928 14.108 10.4053 13.908 10.9413 13.796L13.0773 13.376V13.148ZM10.5573 15.392C10.5573 15.616 10.6413 15.796 10.8093 15.932C10.9853 16.06 11.2173 16.124 11.5053 16.124C11.7773 16.124 12.0333 16.08 12.2733 15.992C12.5133 15.904 12.7053 15.76 12.8493 15.56C13.0013 15.36 13.0773 15.1 13.0773 14.78V14.276L11.5653 14.588C11.2213 14.652 10.9653 14.744 10.7973 14.864C10.6373 14.984 10.5573 15.16 10.5573 15.392ZM20.0347 11V12.008H17.9707V15.2C17.9707 15.488 18.0507 15.704 18.2107 15.848C18.3707 15.984 18.5787 16.052 18.8347 16.052C19.0587 16.052 19.2467 16.02 19.3987 15.956C19.5587 15.884 19.7067 15.788 19.8427 15.668L20.1307 16.604C19.9467 16.764 19.7187 16.892 19.4467 16.988C19.1827 17.076 18.8867 17.12 18.5587 17.12C18.0307 17.12 17.5867 16.992 17.2267 16.736C16.8667 16.472 16.6867 16.032 16.6867 15.416V12.008H15.5347V11H16.6867V9.596L17.9707 9.236V11H20.0347ZM23.9446 17.12C23.3446 17.12 22.8166 16.996 22.3606 16.748C21.9126 16.5 21.5606 16.144 21.3046 15.68C21.0486 15.208 20.9206 14.648 20.9206 14C20.9206 13.352 21.0446 12.796 21.2926 12.332C21.5486 11.86 21.8966 11.5 22.3366 11.252C22.7846 11.004 23.2966 10.88 23.8726 10.88C24.4566 10.88 24.9526 11 25.3606 11.24C25.7686 11.48 26.0806 11.808 26.2966 12.224C26.5126 12.64 26.6206 13.112 26.6206 13.64C26.6206 13.792 26.6166 13.932 26.6086 14.06C26.6006 14.188 26.5886 14.296 26.5726 14.384H22.1806C22.2366 14.944 22.4166 15.372 22.7206 15.668C23.0326 15.956 23.4326 16.1 23.9206 16.1C24.3206 16.1 24.6446 16.024 24.8926 15.872C25.1406 15.72 25.3366 15.508 25.4806 15.236L26.5006 15.716C26.2926 16.156 25.9606 16.5 25.5046 16.748C25.0566 16.996 24.5366 17.12 23.9446 17.12ZM23.8486 11.9C23.4086 11.9 23.0446 12.028 22.7566 12.284C22.4766 12.54 22.2966 12.912 22.2166 13.4H25.3726C25.3406 12.92 25.1886 12.552 24.9166 12.296C24.6446 12.032 24.2886 11.9 23.8486 11.9Z" fill="#262626"/>
<path d="M9.86 40.8V49.32C9.86 50.8533 9.43333 52.0533 8.58 52.92C7.74 53.7733 6.56667 54.2 5.06 54.2C3.44667 54.2 2.28 53.76 1.56 52.88C0.84 52 0.606667 50.8333 0.86 49.38L2.92 49C2.76 50.1467 2.84667 50.9933 3.18 51.54C3.51333 52.0733 4.14 52.34 5.06 52.34C6.06 52.34 6.74667 52.0533 7.12 51.48C7.50667 50.9067 7.7 50.0533 7.7 48.92V40.8H9.86ZM16.7239 54.2C16.0706 54.2 15.4639 54.08 14.9039 53.84C14.3572 53.6 13.9172 53.2133 13.5839 52.68C13.2506 52.1467 13.0839 51.4533 13.0839 50.6V44H15.2239V50.06C15.2239 50.9667 15.4106 51.5933 15.7839 51.94C16.1706 52.2733 16.7172 52.44 17.4239 52.44C17.8772 52.44 18.3039 52.34 18.7039 52.14C19.1039 51.9267 19.4239 51.6 19.6639 51.16C19.9172 50.7067 20.0439 50.1267 20.0439 49.42V44H22.1839V54H20.3039L20.2039 52.38C19.8572 53.0067 19.3906 53.4667 18.8039 53.76C18.2172 54.0533 17.5239 54.2 16.7239 54.2ZM25.5272 54V44H27.4272L27.5272 45.72C27.8605 45.0533 28.3205 44.5667 28.9072 44.26C29.5072 43.9533 30.1739 43.8 30.9072 43.8C31.6139 43.8 32.2472 43.94 32.8072 44.22C33.3805 44.4867 33.8339 44.9 34.1672 45.46C34.5005 46.0067 34.6672 46.6933 34.6672 47.52V54H32.5272V48.18C32.5272 47.1933 32.3205 46.5133 31.9072 46.14C31.5072 45.7533 31.0005 45.56 30.3872 45.56C29.9472 45.56 29.5205 45.66 29.1072 45.86C28.6939 46.06 28.3472 46.3933 28.0672 46.86C27.8005 47.3133 27.6672 47.92 27.6672 48.68V54H25.5272ZM49.3339 40.6C50.3872 40.6 51.2672 40.82 51.9739 41.26C52.6939 41.7 53.2539 42.42 53.6539 43.42L51.7739 44.32C51.5872 43.7467 51.2872 43.2933 50.8739 42.96C50.4739 42.6267 49.9139 42.46 49.1939 42.46C48.5006 42.46 47.9139 42.6867 47.4339 43.14C46.9539 43.58 46.5806 44.18 46.3139 44.94C46.0606 45.7 45.9339 46.5667 45.9339 47.54V47.9L46.0139 47.94C46.1606 47.42 46.4206 46.9933 46.7939 46.66C47.1806 46.3267 47.6139 46.08 48.0939 45.92C48.5739 45.76 49.0472 45.68 49.5139 45.68C50.3806 45.68 51.1406 45.8533 51.7939 46.2C52.4606 46.5333 52.9739 47.0133 53.3339 47.64C53.7072 48.2667 53.8939 49.0133 53.8939 49.88C53.8939 51.2 53.4739 52.2533 52.6339 53.04C51.7939 53.8133 50.6606 54.2 49.2339 54.2C48.1139 54.2 47.1606 53.92 46.3739 53.36C45.5872 52.8 44.9872 52.0133 44.5739 51C44.1606 49.9867 43.9539 48.8 43.9539 47.44C43.9539 45.9333 44.1872 44.6733 44.6539 43.66C45.1339 42.6467 45.7806 41.8867 46.5939 41.38C47.4072 40.86 48.3206 40.6 49.3339 40.6ZM49.1939 47.46C48.4339 47.46 47.8139 47.6867 47.3339 48.14C46.8539 48.58 46.6139 49.16 46.6139 49.88C46.6139 50.3467 46.7272 50.7667 46.9539 51.14C47.1806 51.5133 47.4872 51.8133 47.8739 52.04C48.2739 52.2533 48.7139 52.36 49.1939 52.36C50.0206 52.36 50.6539 52.1467 51.0939 51.72C51.5472 51.28 51.7739 50.6667 51.7739 49.88C51.7739 49.1333 51.5472 48.5467 51.0939 48.12C50.6539 47.68 50.0206 47.46 49.1939 47.46Z" fill="#262626"/>
<line x1="182" y1="0.5" x2="341" y2="0.5" stroke="#D0D0D0"/>
<path d="M189.068 9.08V10.184H186.356V17H185.072V10.184H182.36V9.08H189.068ZM190.898 9.992C190.618 9.992 190.402 9.924 190.25 9.788C190.106 9.644 190.034 9.444 190.034 9.188C190.034 8.932 190.106 8.736 190.25 8.6C190.402 8.464 190.618 8.396 190.898 8.396C191.17 8.396 191.378 8.464 191.522 8.6C191.674 8.736 191.75 8.932 191.75 9.188C191.75 9.444 191.674 9.644 191.522 9.788C191.378 9.924 191.17 9.992 190.898 9.992ZM191.534 11V17H190.25V11H191.534ZM196.135 10.88C196.847 10.88 197.415 11.036 197.839 11.348C198.263 11.66 198.567 12.064 198.751 12.56L197.539 13.04C197.435 12.672 197.267 12.392 197.035 12.2C196.811 12 196.515 11.9 196.147 11.9C195.611 11.9 195.191 12.084 194.887 12.452C194.591 12.812 194.443 13.332 194.443 14.012C194.443 14.684 194.595 15.2 194.899 15.56C195.203 15.92 195.619 16.1 196.147 16.1C196.563 16.1 196.891 16 197.131 15.8C197.379 15.6 197.543 15.312 197.623 14.936L198.787 15.332C198.619 15.876 198.311 16.312 197.863 16.64C197.415 16.96 196.851 17.12 196.171 17.12C195.579 17.12 195.055 16.996 194.599 16.748C194.151 16.5 193.799 16.144 193.543 15.68C193.287 15.208 193.159 14.648 193.159 14C193.159 13.352 193.287 12.796 193.543 12.332C193.799 11.86 194.151 11.5 194.599 11.252C195.047 11.004 195.559 10.88 196.135 10.88ZM205.945 11L203.653 13.352L206.089 17H204.601L202.753 14.18L201.565 15.404V17H200.281V8.3H201.565V13.928L204.421 11H205.945ZM209.659 17.12C209.059 17.12 208.531 16.996 208.075 16.748C207.627 16.5 207.275 16.144 207.019 15.68C206.763 15.208 206.635 14.648 206.635 14C206.635 13.352 206.759 12.796 207.007 12.332C207.263 11.86 207.611 11.5 208.051 11.252C208.499 11.004 209.011 10.88 209.587 10.88C210.171 10.88 210.667 11 211.075 11.24C211.483 11.48 211.795 11.808 212.011 12.224C212.227 12.64 212.335 13.112 212.335 13.64C212.335 13.792 212.331 13.932 212.323 14.06C212.315 14.188 212.303 14.296 212.287 14.384H207.895C207.951 14.944 208.131 15.372 208.435 15.668C208.747 15.956 209.147 16.1 209.635 16.1C210.035 16.1 210.359 16.024 210.607 15.872C210.855 15.72 211.051 15.508 211.195 15.236L212.215 15.716C212.007 16.156 211.675 16.5 211.219 16.748C210.771 16.996 210.251 17.12 209.659 17.12ZM209.563 11.9C209.123 11.9 208.759 12.028 208.471 12.284C208.191 12.54 208.011 12.912 207.931 13.4H211.087C211.055 12.92 210.903 12.552 210.631 12.296C210.359 12.032 210.003 11.9 209.563 11.9ZM217.632 11V12.008H215.568V15.2C215.568 15.488 215.648 15.704 215.808 15.848C215.968 15.984 216.176 16.052 216.432 16.052C216.656 16.052 216.844 16.02 216.996 15.956C217.156 15.884 217.304 15.788 217.44 15.668L217.728 16.604C217.544 16.764 217.316 16.892 217.044 16.988C216.78 17.076 216.484 17.12 216.156 17.12C215.628 17.12 215.184 16.992 214.824 16.736C214.464 16.472 214.284 16.032 214.284 15.416V12.008H213.132V11H214.284V9.596L215.568 9.236V11H217.632ZM229.477 9.08V17H227.953L224.893 12.008L224.125 10.604H224.113L224.161 11.888V17H222.985V9.08H224.497L227.545 14.06L228.325 15.488H228.337L228.289 14.192V9.08H229.477ZM234.163 10.88C234.747 10.88 235.263 11.004 235.711 11.252C236.159 11.5 236.507 11.86 236.755 12.332C237.011 12.796 237.139 13.352 237.139 14C237.139 14.648 237.011 15.208 236.755 15.68C236.507 16.144 236.159 16.5 235.711 16.748C235.263 16.996 234.747 17.12 234.163 17.12C233.579 17.12 233.063 16.996 232.615 16.748C232.167 16.5 231.815 16.144 231.559 15.68C231.303 15.208 231.175 14.648 231.175 14C231.175 13.352 231.303 12.796 231.559 12.332C231.815 11.86 232.167 11.5 232.615 11.252C233.063 11.004 233.579 10.88 234.163 10.88ZM234.163 11.888C233.635 11.888 233.219 12.072 232.915 12.44C232.611 12.8 232.459 13.32 232.459 14C232.459 14.68 232.611 15.204 232.915 15.572C233.219 15.932 233.635 16.112 234.163 16.112C234.691 16.112 235.103 15.932 235.399 15.572C235.703 15.204 235.855 14.68 235.855 14C235.855 13.32 235.703 12.8 235.399 12.44C235.103 12.072 234.691 11.888 234.163 11.888ZM239.179 15.38C239.451 15.38 239.667 15.46 239.827 15.62C239.995 15.772 240.079 15.98 240.079 16.244C240.079 16.508 239.995 16.72 239.827 16.88C239.667 17.04 239.451 17.12 239.179 17.12C238.899 17.12 238.675 17.04 238.507 16.88C238.347 16.72 238.267 16.508 238.267 16.244C238.267 15.98 238.347 15.772 238.507 15.62C238.675 15.46 238.899 15.38 239.179 15.38Z" fill="#262626"/>
<path d="M187.92 40.6C189.053 40.6 190.007 40.88 190.78 41.44C191.553 42 192.14 42.7867 192.54 43.8C192.94 44.8133 193.14 46.0067 193.14 47.38C193.14 49.6467 192.68 51.3533 191.76 52.5C190.853 53.6333 189.58 54.2 187.94 54.2C186.82 54.2 185.853 53.9533 185.04 53.46C184.24 52.9667 183.647 52.2267 183.26 51.24L185.28 50.3C185.467 50.9133 185.773 51.4133 186.2 51.8C186.627 52.1733 187.22 52.36 187.98 52.36C188.793 52.36 189.433 52.1533 189.9 51.74C190.367 51.3133 190.7 50.7133 190.9 49.94C191.1 49.1533 191.2 48.2267 191.2 47.16V46.94H191.12C190.96 47.4867 190.693 47.9267 190.32 48.26C189.947 48.58 189.52 48.82 189.04 48.98C188.56 49.1267 188.08 49.2 187.6 49.2C186.747 49.2 185.987 49.0333 185.32 48.7C184.667 48.3533 184.153 47.8733 183.78 47.26C183.407 46.6467 183.22 45.92 183.22 45.08C183.22 43.7067 183.64 42.62 184.48 41.82C185.32 41.0067 186.467 40.6 187.92 40.6ZM187.94 42.48C187.1 42.48 186.46 42.7067 186.02 43.16C185.58 43.6133 185.36 44.2467 185.36 45.06C185.36 45.78 185.593 46.3467 186.06 46.76C186.527 47.16 187.153 47.36 187.94 47.36C188.7 47.36 189.32 47.14 189.8 46.7C190.28 46.2467 190.52 45.66 190.52 44.94C190.52 44.1933 190.28 43.6 189.8 43.16C189.32 42.7067 188.7 42.48 187.94 42.48ZM200.045 54.2C198.871 54.2 197.905 53.9467 197.145 53.44C196.398 52.9333 195.805 52.2 195.365 51.24L197.365 50.2C197.551 50.8533 197.851 51.38 198.265 51.78C198.678 52.18 199.285 52.38 200.085 52.38C200.911 52.38 201.558 52.1533 202.025 51.7C202.505 51.2467 202.745 50.62 202.745 49.82C202.745 48.9933 202.525 48.3667 202.085 47.94C201.645 47.5 201.011 47.28 200.185 47.28C199.598 47.28 199.071 47.3733 198.605 47.56C198.151 47.7333 197.785 48.02 197.505 48.42L195.745 48.08L196.545 40.8H204.225V42.64H198.245L197.765 46.36L197.725 46.58H197.765C198.071 46.26 198.465 46.0067 198.945 45.82C199.438 45.62 200.018 45.52 200.685 45.52C201.538 45.52 202.271 45.7 202.885 46.06C203.511 46.4067 203.991 46.8933 204.325 47.52C204.671 48.1467 204.845 48.8733 204.845 49.7C204.845 50.6733 204.631 51.4933 204.205 52.16C203.791 52.8267 203.218 53.3333 202.485 53.68C201.765 54.0267 200.951 54.2 200.045 54.2ZM206.53 40.8H216.59V42.58C214.923 44.2867 213.736 46.0733 213.03 47.94C212.336 49.8067 211.99 51.8267 211.99 54H209.83C209.83 51.9067 210.203 49.9067 210.95 48C211.696 46.08 212.836 44.3 214.37 42.66H206.53V40.8ZM223.083 40.62C224.416 40.62 225.483 40.9333 226.283 41.56C227.083 42.1867 227.483 43.0467 227.483 44.14C227.483 44.82 227.316 45.42 226.983 45.94C226.649 46.46 226.176 46.8467 225.563 47.1V47.12C226.336 47.4 226.943 47.82 227.383 48.38C227.823 48.9267 228.043 49.6067 228.043 50.42C228.043 51.58 227.589 52.5 226.683 53.18C225.789 53.86 224.589 54.2 223.083 54.2C222.069 54.2 221.189 54.0467 220.443 53.74C219.709 53.4333 219.136 53 218.723 52.44C218.309 51.8667 218.103 51.1933 218.103 50.42C218.103 49.62 218.323 48.94 218.763 48.38C219.203 47.82 219.816 47.4 220.603 47.12V47.1C219.989 46.8467 219.509 46.4667 219.163 45.96C218.829 45.44 218.663 44.8333 218.663 44.14C218.663 43.0467 219.063 42.1867 219.863 41.56C220.676 40.9333 221.749 40.62 223.083 40.62ZM223.083 42.42C222.376 42.42 221.816 42.5933 221.403 42.94C220.989 43.2733 220.783 43.7467 220.783 44.36C220.783 44.96 220.989 45.4333 221.403 45.78C221.829 46.1133 222.389 46.28 223.083 46.28C223.763 46.28 224.316 46.1133 224.743 45.78C225.169 45.4333 225.383 44.96 225.383 44.36C225.383 43.7467 225.176 43.2733 224.763 42.94C224.349 42.5933 223.789 42.42 223.083 42.42ZM223.083 52.4C223.949 52.4 224.629 52.2067 225.123 51.82C225.629 51.4333 225.883 50.9 225.883 50.22C225.883 49.5267 225.629 48.9867 225.123 48.6C224.616 48.2133 223.936 48.02 223.083 48.02C222.229 48.02 221.543 48.2133 221.023 48.6C220.516 48.9867 220.263 49.5267 220.263 50.22C220.263 50.9 220.516 51.4333 221.023 51.82C221.529 52.2067 222.216 52.4 223.083 52.4ZM236.586 54V50.7H230.146V49.24C230.199 49.12 230.312 48.9333 230.486 48.68L235.986 40.8H238.606V49.04H240.846V50.7H238.606V54H236.586ZM232.146 49.04H236.586V44.38C236.586 44.06 236.592 43.7333 236.606 43.4C236.632 43.0533 236.652 42.7133 236.666 42.38H236.626C236.479 42.7 236.286 43.0533 236.046 43.44C235.819 43.8133 235.606 44.14 235.406 44.42L232.286 48.86C232.246 48.9267 232.199 48.9867 232.146 49.04ZM248.287 40.6C249.34 40.6 250.22 40.82 250.927 41.26C251.647 41.7 252.207 42.42 252.607 43.42L250.727 44.32C250.54 43.7467 250.24 43.2933 249.827 42.96C249.427 42.6267 248.867 42.46 248.147 42.46C247.454 42.46 246.867 42.6867 246.387 43.14C245.907 43.58 245.534 44.18 245.267 44.94C245.014 45.7 244.887 46.5667 244.887 47.54V47.9L244.967 47.94C245.114 47.42 245.374 46.9933 245.747 46.66C246.134 46.3267 246.567 46.08 247.047 45.92C247.527 45.76 248 45.68 248.467 45.68C249.334 45.68 250.094 45.8533 250.747 46.2C251.414 46.5333 251.927 47.0133 252.287 47.64C252.66 48.2667 252.847 49.0133 252.847 49.88C252.847 51.2 252.427 52.2533 251.587 53.04C250.747 53.8133 249.614 54.2 248.187 54.2C247.067 54.2 246.114 53.92 245.327 53.36C244.54 52.8 243.94 52.0133 243.527 51C243.114 49.9867 242.907 48.8 242.907 47.44C242.907 45.9333 243.14 44.6733 243.607 43.66C244.087 42.6467 244.734 41.8867 245.547 41.38C246.36 40.86 247.274 40.6 248.287 40.6ZM248.147 47.46C247.387 47.46 246.767 47.6867 246.287 48.14C245.807 48.58 245.567 49.16 245.567 49.88C245.567 50.3467 245.68 50.7667 245.907 51.14C246.134 51.5133 246.44 51.8133 246.827 52.04C247.227 52.2533 247.667 52.36 248.147 52.36C248.974 52.36 249.607 52.1467 250.047 51.72C250.5 51.28 250.727 50.6667 250.727 49.88C250.727 49.1333 250.5 48.5467 250.047 48.12C249.607 47.68 248.974 47.46 248.147 47.46ZM257.896 54V44.94C257.896 44.6867 257.896 44.4133 257.896 44.12C257.909 43.8267 257.923 43.52 257.936 43.2C257.483 43.64 256.963 44.02 256.376 44.34C255.789 44.6467 255.196 44.8667 254.596 45L254.196 43.14C254.463 43.1 254.783 43.0067 255.156 42.86C255.543 42.7133 255.936 42.5267 256.336 42.3C256.736 42.0733 257.103 41.8333 257.436 41.58C257.769 41.3133 258.029 41.0533 258.216 40.8H260.016V54H257.896ZM268.163 54.2C266.576 54.2 265.329 53.6267 264.423 52.48C263.529 51.32 263.083 49.6267 263.083 47.4C263.083 45.1733 263.529 43.4867 264.423 42.34C265.329 41.18 266.576 40.6 268.163 40.6C269.749 40.6 270.996 41.18 271.903 42.34C272.809 43.4867 273.263 45.1733 273.263 47.4C273.263 49.6267 272.809 51.32 271.903 52.48C270.996 53.6267 269.749 54.2 268.163 54.2ZM268.163 52.38C270.109 52.38 271.083 50.72 271.083 47.4C271.083 44.08 270.109 42.42 268.163 42.42C266.229 42.42 265.263 44.08 265.263 47.4C265.263 50.72 266.229 52.38 268.163 52.38ZM275.841 54V52.42C277.108 51.54 278.168 50.7533 279.021 50.06C279.888 49.3533 280.581 48.7133 281.101 48.14C281.621 47.5533 281.995 46.9933 282.221 46.46C282.461 45.9267 282.581 45.3867 282.581 44.84C282.581 44.1467 282.355 43.58 281.901 43.14C281.461 42.6867 280.855 42.46 280.081 42.46C279.255 42.46 278.595 42.74 278.101 43.3C277.621 43.8467 277.348 44.6 277.281 45.56L275.421 44.7C275.541 43.4467 276.021 42.4533 276.861 41.72C277.701 40.9733 278.815 40.6 280.201 40.6C281.175 40.6 282.001 40.7867 282.681 41.16C283.361 41.5333 283.881 42.0333 284.241 42.66C284.601 43.2867 284.781 43.9867 284.781 44.76C284.781 45.6 284.575 46.4133 284.161 47.2C283.748 47.9733 283.095 48.7667 282.201 49.58C281.308 50.3933 280.135 51.2667 278.681 52.2V52.24C278.841 52.2267 279.061 52.2133 279.341 52.2C279.621 52.1867 279.901 52.18 280.181 52.18C280.461 52.1667 280.688 52.16 280.861 52.16H285.021V54H275.841ZM291.92 54.2C290.746 54.2 289.78 53.9467 289.02 53.44C288.273 52.9333 287.68 52.2 287.24 51.24L289.24 50.2C289.426 50.8533 289.726 51.38 290.14 51.78C290.553 52.18 291.16 52.38 291.96 52.38C292.786 52.38 293.433 52.1533 293.9 51.7C294.38 51.2467 294.62 50.62 294.62 49.82C294.62 48.9933 294.4 48.3667 293.96 47.94C293.52 47.5 292.886 47.28 292.06 47.28C291.473 47.28 290.946 47.3733 290.48 47.56C290.026 47.7333 289.66 48.02 289.38 48.42L287.62 48.08L288.42 40.8H296.1V42.64H290.12L289.64 46.36L289.6 46.58H289.64C289.946 46.26 290.34 46.0067 290.82 45.82C291.313 45.62 291.893 45.52 292.56 45.52C293.413 45.52 294.146 45.7 294.76 46.06C295.386 46.4067 295.866 46.8933 296.2 47.52C296.546 48.1467 296.72 48.8733 296.72 49.7C296.72 50.6733 296.506 51.4933 296.08 52.16C295.666 52.8267 295.093 53.3333 294.36 53.68C293.64 54.0267 292.826 54.2 291.92 54.2ZM305.14 54V50.7H298.7V49.24C298.754 49.12 298.867 48.9333 299.04 48.68L304.54 40.8H307.16V49.04H309.4V50.7H307.16V54H305.14ZM300.7 49.04H305.14V44.38C305.14 44.06 305.147 43.7333 305.16 43.4C305.187 43.0533 305.207 42.7133 305.22 42.38H305.18C305.034 42.7 304.84 43.0533 304.6 43.44C304.374 43.8133 304.16 44.14 303.96 44.42L300.84 48.86C300.8 48.9267 300.754 48.9867 300.7 49.04Z" fill="#262626"/>
</svg>
