<svg width="342" height="59" viewBox="0 0 342 59" fill="none" xmlns="http://www.w3.org/2000/svg">
<line y1="0.5" x2="159" y2="0.5" stroke="#D0D0D0"/>
<path d="M3.876 8.96C4.588 8.96 5.204 9.096 5.724 9.368C6.244 9.632 6.684 10.024 7.044 10.544L6.18 11.372C5.876 10.908 5.532 10.576 5.148 10.376C4.772 10.168 4.324 10.064 3.804 10.064C3.22 10.064 2.796 10.176 2.532 10.4C2.268 10.624 2.136 10.896 2.136 11.216C2.136 11.464 2.22 11.68 2.388 11.864C2.564 12.048 2.888 12.192 3.36 12.296L4.968 12.656C5.728 12.832 6.268 13.092 6.588 13.436C6.916 13.772 7.08 14.204 7.08 14.732C7.08 15.22 6.948 15.644 6.684 16.004C6.42 16.356 6.052 16.632 5.58 16.832C5.108 17.024 4.56 17.12 3.936 17.12C3.096 17.12 2.38 16.964 1.788 16.652C1.196 16.332 0.74 15.936 0.42 15.464L1.308 14.576C1.556 15 1.904 15.348 2.352 15.62C2.808 15.884 3.348 16.016 3.972 16.016C4.524 16.016 4.956 15.92 5.268 15.728C5.588 15.528 5.748 15.244 5.748 14.876C5.748 14.652 5.668 14.452 5.508 14.276C5.356 14.092 5.068 13.952 4.644 13.856L2.904 13.46C2.184 13.308 1.652 13.056 1.308 12.704C0.964 12.352 0.792 11.912 0.792 11.384C0.792 10.936 0.916 10.528 1.164 10.16C1.412 9.792 1.764 9.5 2.22 9.284C2.684 9.068 3.236 8.96 3.876 8.96ZM11.3352 17.12C10.7352 17.12 10.2072 16.996 9.75122 16.748C9.30322 16.5 8.95122 16.144 8.69522 15.68C8.43922 15.208 8.31122 14.648 8.31122 14C8.31122 13.352 8.43522 12.796 8.68322 12.332C8.93922 11.86 9.28722 11.5 9.72722 11.252C10.1752 11.004 10.6872 10.88 11.2632 10.88C11.8472 10.88 12.3432 11 12.7512 11.24C13.1592 11.48 13.4712 11.808 13.6872 12.224C13.9032 12.64 14.0112 13.112 14.0112 13.64C14.0112 13.792 14.0072 13.932 13.9992 14.06C13.9912 14.188 13.9792 14.296 13.9632 14.384H9.57122C9.62722 14.944 9.80722 15.372 10.1112 15.668C10.4232 15.956 10.8232 16.1 11.3112 16.1C11.7112 16.1 12.0352 16.024 12.2832 15.872C12.5312 15.72 12.7272 15.508 12.8712 15.236L13.8912 15.716C13.6832 16.156 13.3512 16.5 12.8952 16.748C12.4472 16.996 11.9272 17.12 11.3352 17.12ZM11.2392 11.9C10.7992 11.9 10.4352 12.028 10.1472 12.284C9.86722 12.54 9.68722 12.912 9.60722 13.4H12.7632C12.7312 12.92 12.5792 12.552 12.3072 12.296C12.0352 12.032 11.6792 11.9 11.2392 11.9ZM19.1007 13.148C19.1007 12.748 18.9887 12.44 18.7647 12.224C18.5487 12 18.2487 11.888 17.8647 11.888C17.5047 11.888 17.1927 11.972 16.9287 12.14C16.6727 12.308 16.4887 12.58 16.3767 12.956L15.2967 12.5C15.4487 12.012 15.7447 11.62 16.1847 11.324C16.6327 11.028 17.2087 10.88 17.9127 10.88C18.3847 10.88 18.8047 10.96 19.1727 11.12C19.5487 11.272 19.8407 11.508 20.0487 11.828C20.2647 12.14 20.3727 12.536 20.3727 13.016V15.692C20.3727 15.988 20.5207 16.136 20.8167 16.136C20.9607 16.136 21.1007 16.116 21.2367 16.076L21.1647 16.964C20.9807 17.052 20.7487 17.096 20.4687 17.096C20.1487 17.096 19.8727 17.024 19.6407 16.88C19.4087 16.736 19.2527 16.52 19.1727 16.232C18.9807 16.528 18.7047 16.752 18.3447 16.904C17.9847 17.048 17.6247 17.12 17.2647 17.12C16.6967 17.12 16.2247 16.984 15.8487 16.712C15.4727 16.44 15.2847 16.032 15.2847 15.488C15.2847 15.048 15.4287 14.684 15.7167 14.396C16.0127 14.108 16.4287 13.908 16.9647 13.796L19.1007 13.376V13.148ZM16.5807 15.392C16.5807 15.616 16.6647 15.796 16.8327 15.932C17.0087 16.06 17.2407 16.124 17.5287 16.124C17.8007 16.124 18.0567 16.08 18.2967 15.992C18.5367 15.904 18.7287 15.76 18.8727 15.56C19.0247 15.36 19.1007 15.1 19.1007 14.78V14.276L17.5887 14.588C17.2447 14.652 16.9887 14.744 16.8207 14.864C16.6607 14.984 16.5807 15.16 16.5807 15.392ZM26.0581 11V12.008H23.9941V15.2C23.9941 15.488 24.0741 15.704 24.2341 15.848C24.3941 15.984 24.6021 16.052 24.8581 16.052C25.0821 16.052 25.2701 16.02 25.4221 15.956C25.5821 15.884 25.7301 15.788 25.8661 15.668L26.1541 16.604C25.9701 16.764 25.7421 16.892 25.4701 16.988C25.2061 17.076 24.9101 17.12 24.5821 17.12C24.0541 17.12 23.6101 16.992 23.2501 16.736C22.8901 16.472 22.7101 16.032 22.7101 15.416V12.008H21.5581V11H22.7101V9.596L23.9941 9.236V11H26.0581Z" fill="#262626"/>
<path d="M1.4 54V52.42C2.66667 51.54 3.72667 50.7533 4.58 50.06C5.44667 49.3533 6.14 48.7133 6.66 48.14C7.18 47.5533 7.55333 46.9933 7.78 46.46C8.02 45.9267 8.14 45.3867 8.14 44.84C8.14 44.1467 7.91333 43.58 7.46 43.14C7.02 42.6867 6.41333 42.46 5.64 42.46C4.81333 42.46 4.15333 42.74 3.66 43.3C3.18 43.8467 2.90667 44.6 2.84 45.56L0.98 44.7C1.1 43.4467 1.58 42.4533 2.42 41.72C3.26 40.9733 4.37333 40.6 5.76 40.6C6.73333 40.6 7.56 40.7867 8.24 41.16C8.92 41.5333 9.44 42.0333 9.8 42.66C10.16 43.2867 10.34 43.9867 10.34 44.76C10.34 45.6 10.1333 46.4133 9.72 47.2C9.30667 47.9733 8.65333 48.7667 7.76 49.58C6.86667 50.3933 5.69333 51.2667 4.24 52.2V52.24C4.4 52.2267 4.62 52.2133 4.9 52.2C5.18 52.1867 5.46 52.18 5.74 52.18C6.02 52.1667 6.24667 52.16 6.42 52.16H10.58V54H1.4ZM15.7983 54V44.94C15.7983 44.6867 15.7983 44.4133 15.7983 44.12C15.8116 43.8267 15.8249 43.52 15.8383 43.2C15.3849 43.64 14.8649 44.02 14.2783 44.34C13.6916 44.6467 13.0983 44.8667 12.4983 45L12.0983 43.14C12.3649 43.1 12.6849 43.0067 13.0583 42.86C13.4449 42.7133 13.8383 42.5267 14.2383 42.3C14.6383 42.0733 15.0049 41.8333 15.3383 41.58C15.6716 41.3133 15.9316 41.0533 16.1183 40.8H17.9183V54H15.7983ZM32.6852 50.5C32.2852 51.7 31.5985 52.62 30.6252 53.26C29.6518 53.8867 28.5185 54.2 27.2252 54.2C25.9452 54.2 24.8385 53.9267 23.9052 53.38C22.9852 52.8333 22.2718 52.0533 21.7652 51.04C21.2585 50.0133 21.0052 48.8 21.0052 47.4C21.0052 46 21.2585 44.7933 21.7652 43.78C22.2718 42.7533 22.9852 41.9667 23.9052 41.42C24.8385 40.8733 25.9385 40.6 27.2052 40.6C28.5118 40.6 29.6185 40.8733 30.5252 41.42C31.4318 41.9667 32.0852 42.7733 32.4852 43.84L30.4652 44.74C29.9585 43.22 28.9118 42.46 27.3252 42.46C26.0852 42.46 25.0918 42.8933 24.3452 43.76C23.6118 44.6133 23.2452 45.8267 23.2452 47.4C23.2452 48.96 23.5985 50.1733 24.3052 51.04C25.0118 51.9067 25.9985 52.34 27.2652 52.34C28.0785 52.34 28.7785 52.1333 29.3652 51.72C29.9652 51.2933 30.3918 50.66 30.6452 49.82L32.6852 50.5Z" fill="#262626"/>
<line x1="183" y1="0.5" x2="342" y2="0.5" stroke="#D0D0D0"/>
<path d="M190.74 14.9C190.5 15.62 190.088 16.172 189.504 16.556C188.92 16.932 188.24 17.12 187.464 17.12C186.696 17.12 186.032 16.956 185.472 16.628C184.92 16.3 184.492 15.832 184.188 15.224C183.884 14.608 183.732 13.88 183.732 13.04C183.732 12.2 183.884 11.476 184.188 10.868C184.492 10.252 184.92 9.78 185.472 9.452C186.032 9.124 186.692 8.96 187.452 8.96C188.236 8.96 188.9 9.124 189.444 9.452C189.988 9.78 190.38 10.264 190.62 10.904L189.408 11.444C189.104 10.532 188.476 10.076 187.524 10.076C186.78 10.076 186.184 10.336 185.736 10.856C185.296 11.368 185.076 12.096 185.076 13.04C185.076 13.976 185.288 14.704 185.712 15.224C186.136 15.744 186.728 16.004 187.488 16.004C187.976 16.004 188.396 15.88 188.748 15.632C189.108 15.376 189.364 14.996 189.516 14.492L190.74 14.9ZM193.447 8.3V15.32C193.447 15.616 193.499 15.82 193.603 15.932C193.707 16.044 193.879 16.1 194.119 16.1C194.263 16.1 194.383 16.092 194.479 16.076C194.583 16.052 194.711 16.012 194.863 15.956L194.719 16.916C194.439 17.052 194.107 17.12 193.723 17.12C193.187 17.12 192.791 16.984 192.535 16.712C192.287 16.44 192.163 16.012 192.163 15.428V8.3H193.447ZM199.429 13.148C199.429 12.748 199.317 12.44 199.093 12.224C198.877 12 198.577 11.888 198.193 11.888C197.833 11.888 197.521 11.972 197.257 12.14C197.001 12.308 196.817 12.58 196.705 12.956L195.625 12.5C195.777 12.012 196.073 11.62 196.513 11.324C196.961 11.028 197.537 10.88 198.241 10.88C198.713 10.88 199.133 10.96 199.501 11.12C199.877 11.272 200.169 11.508 200.377 11.828C200.593 12.14 200.701 12.536 200.701 13.016V15.692C200.701 15.988 200.849 16.136 201.145 16.136C201.289 16.136 201.429 16.116 201.565 16.076L201.493 16.964C201.309 17.052 201.077 17.096 200.797 17.096C200.477 17.096 200.201 17.024 199.969 16.88C199.737 16.736 199.581 16.52 199.501 16.232C199.309 16.528 199.033 16.752 198.673 16.904C198.313 17.048 197.953 17.12 197.593 17.12C197.025 17.12 196.553 16.984 196.177 16.712C195.801 16.44 195.613 16.032 195.613 15.488C195.613 15.048 195.757 14.684 196.045 14.396C196.341 14.108 196.757 13.908 197.293 13.796L199.429 13.376V13.148ZM196.909 15.392C196.909 15.616 196.993 15.796 197.161 15.932C197.337 16.06 197.569 16.124 197.857 16.124C198.129 16.124 198.385 16.08 198.625 15.992C198.865 15.904 199.057 15.76 199.201 15.56C199.353 15.36 199.429 15.1 199.429 14.78V14.276L197.917 14.588C197.573 14.652 197.317 14.744 197.149 14.864C196.989 14.984 196.909 15.16 196.909 15.392ZM205.085 17.12C204.485 17.12 203.937 17.004 203.441 16.772C202.945 16.54 202.553 16.212 202.265 15.788L203.153 15.02C203.329 15.348 203.581 15.612 203.909 15.812C204.245 16.004 204.645 16.1 205.109 16.1C205.477 16.1 205.769 16.036 205.985 15.908C206.201 15.78 206.309 15.6 206.309 15.368C206.309 15.216 206.257 15.084 206.153 14.972C206.057 14.852 205.869 14.76 205.589 14.696L204.329 14.432C203.689 14.304 203.233 14.096 202.961 13.808C202.689 13.52 202.553 13.16 202.553 12.728C202.553 12.4 202.649 12.096 202.841 11.816C203.041 11.536 203.325 11.312 203.693 11.144C204.061 10.968 204.505 10.88 205.025 10.88C205.617 10.88 206.125 10.988 206.549 11.204C206.981 11.412 207.309 11.712 207.533 12.104L206.645 12.848C206.485 12.528 206.257 12.292 205.961 12.14C205.673 11.98 205.369 11.9 205.049 11.9C204.657 11.9 204.353 11.972 204.137 12.116C203.929 12.252 203.825 12.432 203.825 12.656C203.825 12.808 203.885 12.948 204.005 13.076C204.125 13.196 204.341 13.288 204.653 13.352L206.021 13.64C206.597 13.752 207.001 13.944 207.233 14.216C207.473 14.48 207.593 14.804 207.593 15.188C207.593 15.764 207.369 16.232 206.921 16.592C206.473 16.944 205.861 17.12 205.085 17.12ZM211.436 17.12C210.836 17.12 210.288 17.004 209.792 16.772C209.296 16.54 208.904 16.212 208.616 15.788L209.504 15.02C209.68 15.348 209.932 15.612 210.26 15.812C210.596 16.004 210.996 16.1 211.46 16.1C211.828 16.1 212.12 16.036 212.336 15.908C212.552 15.78 212.66 15.6 212.66 15.368C212.66 15.216 212.608 15.084 212.504 14.972C212.408 14.852 212.22 14.76 211.94 14.696L210.68 14.432C210.04 14.304 209.584 14.096 209.312 13.808C209.04 13.52 208.904 13.16 208.904 12.728C208.904 12.4 209 12.096 209.192 11.816C209.392 11.536 209.676 11.312 210.044 11.144C210.412 10.968 210.856 10.88 211.376 10.88C211.968 10.88 212.476 10.988 212.9 11.204C213.332 11.412 213.66 11.712 213.884 12.104L212.996 12.848C212.836 12.528 212.608 12.292 212.312 12.14C212.024 11.98 211.72 11.9 211.4 11.9C211.008 11.9 210.704 11.972 210.488 12.116C210.28 12.252 210.176 12.432 210.176 12.656C210.176 12.808 210.236 12.948 210.356 13.076C210.476 13.196 210.692 13.288 211.004 13.352L212.372 13.64C212.948 13.752 213.352 13.944 213.584 14.216C213.824 14.48 213.944 14.804 213.944 15.188C213.944 15.764 213.72 16.232 213.272 16.592C212.824 16.944 212.212 17.12 211.436 17.12Z" fill="#262626"/>
<path d="M184.96 54V40.8H194.52V42.64H187.1V46.44H192.9V48.24H187.1V52.16H194.8V54H184.96ZM201.382 43.8C202.569 43.8 203.516 44.06 204.222 44.58C204.929 45.1 205.436 45.7733 205.742 46.6L203.722 47.4C203.549 46.7867 203.269 46.32 202.882 46C202.509 45.6667 202.016 45.5 201.402 45.5C200.509 45.5 199.809 45.8067 199.302 46.42C198.809 47.02 198.562 47.8867 198.562 49.02C198.562 50.14 198.816 51 199.322 51.6C199.829 52.2 200.522 52.5 201.402 52.5C202.096 52.5 202.642 52.3333 203.042 52C203.456 51.6667 203.729 51.1867 203.862 50.56L205.802 51.22C205.522 52.1267 205.009 52.8533 204.262 53.4C203.516 53.9333 202.576 54.2 201.442 54.2C200.456 54.2 199.582 53.9933 198.822 53.58C198.076 53.1667 197.489 52.5733 197.062 51.8C196.636 51.0133 196.422 50.08 196.422 49C196.422 47.92 196.636 46.9933 197.062 46.22C197.489 45.4333 198.076 44.8333 198.822 44.42C199.569 44.0067 200.422 43.8 201.382 43.8ZM212.633 43.8C213.606 43.8 214.466 44.0067 215.213 44.42C215.959 44.8333 216.539 45.4333 216.953 46.22C217.379 46.9933 217.593 47.92 217.593 49C217.593 50.08 217.379 51.0133 216.953 51.8C216.539 52.5733 215.959 53.1667 215.213 53.58C214.466 53.9933 213.606 54.2 212.633 54.2C211.659 54.2 210.799 53.9933 210.053 53.58C209.306 53.1667 208.719 52.5733 208.293 51.8C207.866 51.0133 207.653 50.08 207.653 49C207.653 47.92 207.866 46.9933 208.293 46.22C208.719 45.4333 209.306 44.8333 210.053 44.42C210.799 44.0067 211.659 43.8 212.633 43.8ZM212.633 45.48C211.753 45.48 211.059 45.7867 210.553 46.4C210.046 47 209.793 47.8667 209.793 49C209.793 50.1333 210.046 51.0067 210.553 51.62C211.059 52.22 211.753 52.52 212.633 52.52C213.513 52.52 214.199 52.22 214.693 51.62C215.199 51.0067 215.453 50.1333 215.453 49C215.453 47.8667 215.199 47 214.693 46.4C214.199 45.7867 213.513 45.48 212.633 45.48ZM220.285 54V44H222.185L222.285 45.72C222.618 45.0533 223.078 44.5667 223.665 44.26C224.265 43.9533 224.932 43.8 225.665 43.8C226.372 43.8 227.005 43.94 227.565 44.22C228.138 44.4867 228.592 44.9 228.925 45.46C229.258 46.0067 229.425 46.6933 229.425 47.52V54H227.285V48.18C227.285 47.1933 227.078 46.5133 226.665 46.14C226.265 45.7533 225.758 45.56 225.145 45.56C224.705 45.56 224.278 45.66 223.865 45.86C223.452 46.06 223.105 46.3933 222.825 46.86C222.558 47.3133 222.425 47.92 222.425 48.68V54H220.285ZM237.008 43.8C237.981 43.8 238.841 44.0067 239.588 44.42C240.334 44.8333 240.914 45.4333 241.328 46.22C241.754 46.9933 241.968 47.92 241.968 49C241.968 50.08 241.754 51.0133 241.328 51.8C240.914 52.5733 240.334 53.1667 239.588 53.58C238.841 53.9933 237.981 54.2 237.008 54.2C236.034 54.2 235.174 53.9933 234.428 53.58C233.681 53.1667 233.094 52.5733 232.668 51.8C232.241 51.0133 232.028 50.08 232.028 49C232.028 47.92 232.241 46.9933 232.668 46.22C233.094 45.4333 233.681 44.8333 234.428 44.42C235.174 44.0067 236.034 43.8 237.008 43.8ZM237.008 45.48C236.128 45.48 235.434 45.7867 234.928 46.4C234.421 47 234.168 47.8667 234.168 49C234.168 50.1333 234.421 51.0067 234.928 51.62C235.434 52.22 236.128 52.52 237.008 52.52C237.888 52.52 238.574 52.22 239.068 51.62C239.574 51.0067 239.828 50.1333 239.828 49C239.828 47.8667 239.574 47 239.068 46.4C238.574 45.7867 237.888 45.48 237.008 45.48ZM244.66 54V44H246.56L246.66 45.68C247.007 45.04 247.467 44.5667 248.04 44.26C248.627 43.9533 249.247 43.8 249.9 43.8C250.62 43.8 251.28 43.9667 251.88 44.3C252.493 44.62 252.953 45.1067 253.26 45.76C253.473 45.32 253.767 44.9533 254.14 44.66C254.513 44.3667 254.927 44.1533 255.38 44.02C255.833 43.8733 256.28 43.8 256.72 43.8C257.36 43.8 257.96 43.9333 258.52 44.2C259.08 44.4667 259.533 44.8733 259.88 45.42C260.227 45.9667 260.4 46.6667 260.4 47.52V54H258.26V47.86C258.26 47.0333 258.06 46.4467 257.66 46.1C257.273 45.74 256.787 45.56 256.2 45.56C255.507 45.56 254.9 45.82 254.38 46.34C253.86 46.8467 253.6 47.5867 253.6 48.56V54H251.46V47.86C251.46 47.0333 251.26 46.4467 250.86 46.1C250.473 45.74 249.987 45.56 249.4 45.56C249 45.56 248.6 45.6667 248.2 45.88C247.8 46.0933 247.467 46.4267 247.2 46.88C246.933 47.3333 246.8 47.9333 246.8 48.68V54H244.66ZM272.112 44L267.732 55.18C267.292 56.34 266.792 57.1467 266.232 57.6C265.672 58.0667 264.952 58.3 264.072 58.3C263.579 58.3 263.132 58.24 262.732 58.12C262.332 58 261.979 57.8267 261.672 57.6L262.192 55.94C262.672 56.3667 263.252 56.58 263.932 56.58C264.292 56.58 264.612 56.4867 264.892 56.3C265.185 56.1133 265.445 55.7267 265.672 55.14L266.112 54.06L265.052 51.58L261.932 44H264.332L266.552 50.28L267.132 52.16L267.792 50.1L269.892 44H272.112Z" fill="#262626"/>
</svg>
